<mxfile host="app.diagrams.net" modified="2021-05-17T02:22:19.977Z" agent="5.0 (Macintosh; Intel Mac OS X 10_15_6) AppleWebKit/605.1.15 (KHTML, like Gecko) Version/13.1.2 Safari/605.1.15" etag="jRih_CACqZwZDOuymZQa" version="14.6.13" type="github">
  <diagram id="C5RBs43oDa-KdzZeNtuy" name="Page-1">
    <mxGraphModel dx="946" dy="662" grid="1" gridSize="10" guides="1" tooltips="1" connect="1" arrows="1" fold="1" page="1" pageScale="1" pageWidth="827" pageHeight="1169" math="0" shadow="0">
      <root>
        <mxCell id="WIyWlLk6GJQsqaUBKTNV-0" />
        <mxCell id="WIyWlLk6GJQsqaUBKTNV-1" parent="WIyWlLk6GJQsqaUBKTNV-0" />
        <mxCell id="B4mlSTw-3ViAigWMu0kb-0" value="Stroke prevention and post-stroke rehabilitation health platform" style="rounded=0;whiteSpace=wrap;html=1;" vertex="1" parent="WIyWlLk6GJQsqaUBKTNV-1">
          <mxGeometry x="250" y="80" width="300" height="110" as="geometry" />
        </mxCell>
        <mxCell id="B4mlSTw-3ViAigWMu0kb-2" style="edgeStyle=orthogonalEdgeStyle;rounded=0;orthogonalLoop=1;jettySize=auto;html=1;entryX=0;entryY=0.5;entryDx=0;entryDy=0;" edge="1" parent="WIyWlLk6GJQsqaUBKTNV-1" source="B4mlSTw-3ViAigWMu0kb-1" target="B4mlSTw-3ViAigWMu0kb-0">
          <mxGeometry relative="1" as="geometry" />
        </mxCell>
        <mxCell id="B4mlSTw-3ViAigWMu0kb-1" value="User module" style="rounded=0;whiteSpace=wrap;html=1;" vertex="1" parent="WIyWlLk6GJQsqaUBKTNV-1">
          <mxGeometry x="20" y="105" width="120" height="60" as="geometry" />
        </mxCell>
        <mxCell id="B4mlSTw-3ViAigWMu0kb-5" style="edgeStyle=orthogonalEdgeStyle;rounded=0;orthogonalLoop=1;jettySize=auto;html=1;entryX=0;entryY=0.75;entryDx=0;entryDy=0;" edge="1" parent="WIyWlLk6GJQsqaUBKTNV-1" source="B4mlSTw-3ViAigWMu0kb-4" target="B4mlSTw-3ViAigWMu0kb-0">
          <mxGeometry relative="1" as="geometry" />
        </mxCell>
        <mxCell id="B4mlSTw-3ViAigWMu0kb-4" value="Patient self-assessment module" style="rounded=0;whiteSpace=wrap;html=1;" vertex="1" parent="WIyWlLk6GJQsqaUBKTNV-1">
          <mxGeometry x="60" y="260" width="120" height="60" as="geometry" />
        </mxCell>
        <mxCell id="B4mlSTw-3ViAigWMu0kb-7" style="edgeStyle=orthogonalEdgeStyle;rounded=0;orthogonalLoop=1;jettySize=auto;html=1;exitX=0.5;exitY=0;exitDx=0;exitDy=0;entryX=0.5;entryY=1;entryDx=0;entryDy=0;" edge="1" parent="WIyWlLk6GJQsqaUBKTNV-1" source="B4mlSTw-3ViAigWMu0kb-6" target="B4mlSTw-3ViAigWMu0kb-0">
          <mxGeometry relative="1" as="geometry" />
        </mxCell>
        <mxCell id="B4mlSTw-3ViAigWMu0kb-6" value="Medical information module" style="rounded=0;whiteSpace=wrap;html=1;" vertex="1" parent="WIyWlLk6GJQsqaUBKTNV-1">
          <mxGeometry x="340" y="300" width="120" height="60" as="geometry" />
        </mxCell>
        <mxCell id="B4mlSTw-3ViAigWMu0kb-9" style="edgeStyle=orthogonalEdgeStyle;rounded=0;orthogonalLoop=1;jettySize=auto;html=1;entryX=0.107;entryY=1.027;entryDx=0;entryDy=0;entryPerimeter=0;" edge="1" parent="WIyWlLk6GJQsqaUBKTNV-1" source="B4mlSTw-3ViAigWMu0kb-8" target="B4mlSTw-3ViAigWMu0kb-0">
          <mxGeometry relative="1" as="geometry" />
        </mxCell>
        <mxCell id="B4mlSTw-3ViAigWMu0kb-8" value="Individual patient profile module" style="rounded=0;whiteSpace=wrap;html=1;" vertex="1" parent="WIyWlLk6GJQsqaUBKTNV-1">
          <mxGeometry x="190" y="330" width="120" height="60" as="geometry" />
        </mxCell>
        <mxCell id="B4mlSTw-3ViAigWMu0kb-11" style="edgeStyle=orthogonalEdgeStyle;rounded=0;orthogonalLoop=1;jettySize=auto;html=1;exitX=0.5;exitY=0;exitDx=0;exitDy=0;entryX=0.783;entryY=1.009;entryDx=0;entryDy=0;entryPerimeter=0;" edge="1" parent="WIyWlLk6GJQsqaUBKTNV-1" source="B4mlSTw-3ViAigWMu0kb-10" target="B4mlSTw-3ViAigWMu0kb-0">
          <mxGeometry relative="1" as="geometry" />
        </mxCell>
        <mxCell id="B4mlSTw-3ViAigWMu0kb-10" value="Medical instruction module" style="rounded=0;whiteSpace=wrap;html=1;" vertex="1" parent="WIyWlLk6GJQsqaUBKTNV-1">
          <mxGeometry x="500" y="320" width="120" height="60" as="geometry" />
        </mxCell>
        <mxCell id="B4mlSTw-3ViAigWMu0kb-13" style="edgeStyle=orthogonalEdgeStyle;rounded=0;orthogonalLoop=1;jettySize=auto;html=1;entryX=1;entryY=0.5;entryDx=0;entryDy=0;" edge="1" parent="WIyWlLk6GJQsqaUBKTNV-1" source="B4mlSTw-3ViAigWMu0kb-12" target="B4mlSTw-3ViAigWMu0kb-0">
          <mxGeometry relative="1" as="geometry" />
        </mxCell>
        <mxCell id="B4mlSTw-3ViAigWMu0kb-12" value="Related project information module" style="rounded=0;whiteSpace=wrap;html=1;" vertex="1" parent="WIyWlLk6GJQsqaUBKTNV-1">
          <mxGeometry x="640" y="150" width="120" height="60" as="geometry" />
        </mxCell>
      </root>
    </mxGraphModel>
  </diagram>
</mxfile>
